<svg viewBox="0 0 550 500" width="550" height="500" xmlns="http://www.w3.org/2000/svg">
<path opacity="0.08" d="M444.074 -24.1982C442.258 -25.4635 439.759 -25.0128 438.499 -23.1926L348.881 106.278C346.283 110.031 340.436 107.203 341.765 102.836L379.819 -22.1677C380.465 -24.2895 379.261 -26.5318 377.136 -27.1658L283.699 -55.0342C281.59 -55.663 279.37 -54.4711 278.729 -52.3663L234.355 93.3526C233.714 95.4574 231.494 96.6494 229.385 96.0204L91.2505 54.8075C89.142 54.1784 86.9213 55.3704 86.2803 57.4752L50.8972 173.666C50.4369 175.177 50.9094 176.818 52.1029 177.853L249.748 349.261C251.184 350.507 253.297 350.57 254.805 349.412L369.678 261.211C370.007 260.959 370.295 260.656 370.531 260.315L525.052 37.07C526.307 35.2574 525.858 32.7713 524.05 31.5113L444.074 -24.1982Z" fill="white"/>
</svg>
