<svg width="194" height="217" fill="none" xmlns="http://www.w3.org/2000/svg"><path fill-rule="evenodd" clip-rule="evenodd" d="M76.207 74.06c-3.54 0-6.804-1.906-8.516-4.983a9.555 9.555 0 0 1 .37-9.909l26.788-40.72 16.294 10.518L94.32 54.54l32.92-.465.277 19.264-51.171.721-.14.001" fill="#FB5058"/><path fill-rule="evenodd" clip-rule="evenodd" d="M83.894 129.764c-5.03 0-9.717-3.228-11.393-8.331L51.843 58.549c-2.096-6.379 1.308-13.27 7.602-15.395 6.294-2.123 13.094 1.325 15.19 7.704l20.657 62.885c2.096 6.378-1.309 13.271-7.602 15.395a11.874 11.874 0 0 1-3.796.626" fill="#450063"/><path fill-rule="evenodd" clip-rule="evenodd" d="M44.233 210.457a4.808 4.808 0 0 1-4.649-3.594l-10-38.368a4.805 4.805 0 0 1 3.44-5.861 4.806 4.806 0 0 1 5.864 3.438l10 38.369a4.804 4.804 0 0 1-4.655 6.016" fill="#F9BE05"/><path fill-rule="evenodd" clip-rule="evenodd" d="M53.404 217l-3.636-13.99-20.67-.186c-9.442.326-14.418 4.927-14.93 13.803l39.236.373z" fill="#007E8A"/><path fill-rule="evenodd" clip-rule="evenodd" d="M22.532 186.467L5.45 120.64l23.244-6.142 17.082 65.827-23.243 6.142z" fill="#450063"/><path fill-rule="evenodd" clip-rule="evenodd" d="M16.398 129.764c-6.639 0-12.025-5.317-12.038-11.888-.013-6.579 5.366-11.923 12.015-11.935l86.001-.167h.024c6.638 0 12.025 5.317 12.038 11.888.013 6.579-5.366 11.922-12.015 11.935l-86.001.167h-.024z" fill="#450063"/><path fill-rule="evenodd" clip-rule="evenodd" d="M182.081 68.698L138.416 56.98l4.29-16.632 43.665 11.72-4.29 16.631z" fill="#80005A"/><path fill-rule="evenodd" clip-rule="evenodd" d="M136.799 55.84l-2.687-1.228c-8.252-2.99-15.661-.3-22.227 8.07l-35.593 41.044 40.944 30.4 41.888-69.999-22.325-8.286z" fill="#FB5058"/><path fill-rule="evenodd" clip-rule="evenodd" d="M148.185 21.81c-1.444.365-2.825 1.068-4.143 2.111l-13.301 10.56c-2.432 1.955-3.838 4.484-4.218 7.587-.38 3.155.366 5.997 2.242 8.526l2.888 3.833c1.901 2.502 4.371 3.95 7.41 4.341 2.94.417 5.6-.287 7.981-2.112-.355-1.095-.659-2.386-.912-3.872-.532-2.764.697-4.172 3.686-4.224 2.965-.026 4.865-.652 5.701-1.877.81-1.226.152-2.216-1.977-2.972-2.102-.73-3.217-1.63-3.344-2.699-.127-1.095.419-2.555 1.634-4.38 1.242-1.878 1.926-3.611 2.052-5.202.127-1.877-.582-3.337-2.127-4.38-1.85-1.252-2.965-2.334-3.344-3.246-.254-.574-.33-1.239-.228-1.995" fill="#F3976A"/><path fill-rule="evenodd" clip-rule="evenodd" d="M162.313 29.961l-3.001-3.802c-1.947-2.508-4.513-3.957-7.697-4.345a11.562 11.562 0 0 0-4.223.232c-.106.75-.027 1.41.236 1.98.395.905 1.553 1.979 3.474 3.22 1.605 1.033 2.342 2.482 2.211 4.344-.132 1.578-.842 3.298-2.132 5.16-1.263 1.81-1.83 3.259-1.698 4.345.132 1.061 1.29 1.953 3.474 2.677 2.211.75 2.895 1.733 2.053 2.949-.869 1.215-2.842 1.835-5.922 1.862-3.104.051-4.38 1.449-3.828 4.19.262 1.474.579 2.755.947 3.84a1.6 1.6 0 0 0 .237-.193l13.816-10.476c2.526-1.939 3.987-4.461 4.382-7.565.42-3.13-.356-5.935-2.329-8.418" fill="#450063"/><path fill-rule="evenodd" clip-rule="evenodd" d="M144.953 30.408c-.027-.91-.339-1.655-.935-2.235-.65-.634-1.408-.938-2.275-.91l-5.606.083a3.216 3.216 0 0 0-2.276.992c-.622.636-.92 1.408-.893 2.319.026.91.352 1.668.975 2.275a3.126 3.126 0 0 0 2.315.87l5.607-.083a3.245 3.245 0 0 0 2.235-.952c.596-.661.88-1.449.853-2.359" fill="#F3976A"/><path fill-rule="evenodd" clip-rule="evenodd" d="M29.855 116.678a4.713 4.713 0 0 1-2.493-.713c-2.259-1.395-2.971-4.381-1.59-6.666l23.11-38.28c1.38-2.283 4.328-3.006 6.588-1.609 2.258 1.397 2.97 4.381 1.59 6.666l-23.111 38.28a4.777 4.777 0 0 1-4.094 2.322" fill="#F9BE05"/><path fill-rule="evenodd" clip-rule="evenodd" d="M20.146 100.672l-.482-.244c-9.65-5.642-16.207-4.216-19.664 4.28l34.43 20.694 3.716-13.38-17.493-11.032c-.16-.033-.33-.139-.507-.318" fill="#007E8A"/><path fill-rule="evenodd" clip-rule="evenodd" d="M45.718 106.864l-20.65-12.293 27.304-45.5 20.65 12.293-27.304 45.5z" fill="#450063"/><path fill-rule="evenodd" clip-rule="evenodd" d="M148.135 58.74l-3.923-20.574-22.234 25.08 26.157-4.507zM104.108 39.256c-.443 0-.893-.1-1.317-.31l-11.174-5.573a2.929 2.929 0 0 1-1.407-1.515l-1.715-4.211a2.904 2.904 0 0 1 .098-2.405l8.405-16.647c.134-.264.306-.506.512-.719l6.788-6.985a2.965 2.965 0 0 1 2.506-.866 2.943 2.943 0 0 1 2.189 1.49l1.813 3.287a2.91 2.91 0 0 1-1.165 3.965 2.954 2.954 0 0 1-3.88-.97l-3.707 3.814-7.608 15.07.8 1.965 10.184 5.079a2.914 2.914 0 0 1 1.309 3.921 2.943 2.943 0 0 1-2.631 1.61" fill="#F3976A"/><path fill-rule="evenodd" clip-rule="evenodd" d="M113.129 32.714l3.489-5.22-22.184-8.956-1.794 4.19 20.489 9.986z" fill="#FB5058"/><path d="M94.472 19.536c-2.474-1.131-3.595-4.128-2.504-6.693 1.09-2.565 3.98-3.727 6.455-2.596l20.723 9.473c2.474 1.131 3.595 4.128 2.504 6.693-1.091 2.565-3.981 3.727-6.455 2.596l-20.723-9.473z" fill="#450063"/><path fill-rule="evenodd" clip-rule="evenodd" d="M101.904 6.543c-1.352 0-2.506.48-3.465 1.439-.958.96-1.439 2.116-1.439 3.469 0 1.351.48 2.508 1.44 3.468.958.96 2.112 1.438 3.464 1.438 1.353 0 2.507-.478 3.466-1.438.958-.96 1.439-2.117 1.439-3.468 0-1.353-.481-2.51-1.439-3.47-.959-.959-2.113-1.438-3.466-1.438M120.978 16.902c0-1.352-.48-2.508-1.439-3.467-.959-.959-2.115-1.44-3.467-1.44-1.35 0-2.507.481-3.465 1.44-.959.959-1.438 2.115-1.438 3.467 0 1.353.479 2.509 1.438 3.468.958.959 2.115 1.44 3.465 1.44 1.352 0 2.508-.481 3.467-1.44.959-.96 1.439-2.115 1.439-3.468" fill="#007E8A"/><path fill-rule="evenodd" clip-rule="evenodd" d="M108.444 13.085c-1.352 0-2.507.48-3.466 1.439-.959.96-1.439 2.116-1.439 3.469 0 1.352.48 2.509 1.439 3.468.959.96 2.114 1.439 3.466 1.439 1.352 0 2.507-.48 3.465-1.439.959-.96 1.439-2.116 1.439-3.468 0-1.353-.48-2.51-1.439-3.469-.958-.959-2.113-1.439-3.465-1.439" fill="#007E8A"/><path fill-rule="evenodd" clip-rule="evenodd" d="M106.084 5.201c-4.129-1.745-7.157-.769-9.084 2.933l24.579 10.404c1.334-3.957-.064-6.809-4.193-8.554L106.084 5.2zM114.729 33.597c.275-.37.541-.78.799-1.23L90.938 21.81a9.636 9.636 0 0 0-.363 1.423c-.565 3.198.96 5.568 4.574 7.11l11.352 4.797c3.566 1.511 6.309.997 8.228-1.542" fill="#FABE00"/><path fill-rule="evenodd" clip-rule="evenodd" d="M118.064 13.085c-1.031 0-2.029-.524-2.559-1.45l-1.797-3.14c-.774-1.352-.257-3.048 1.156-3.789 1.41-.741 3.183-.246 3.957 1.107l1.797 3.14c.774 1.351.256 3.047-1.156 3.789a3.005 3.005 0 0 1-1.398.343" fill="#F3976A"/><path fill-rule="evenodd" clip-rule="evenodd" d="M39.49 217l-5.703-1.457 21.545-82.508 5.702 1.457L39.489 217zM135.983 217l-21.545-82.508 5.702-1.457 21.545 82.508-5.702 1.457z" fill="#8D9D9D"/><path fill-rule="evenodd" clip-rule="evenodd" d="M118.751 145.03H44.685v-14.58h70.136l39.79-61.752 12.142 7.937-41.93 65.074a7.227 7.227 0 0 1-6.072 3.321" fill="#E8EBEB"/><path fill-rule="evenodd" clip-rule="evenodd" d="M133.84 77.422c-4.085 0-7.691-2.885-8.386-6.96-.773-4.536 2.359-8.826 6.997-9.582l51.635-8.423c4.635-.757 9.024 2.307 9.797 6.844.773 4.537-2.359 8.827-6.997 9.584l-51.635 8.422a8.758 8.758 0 0 1-1.411.115" fill="#FB5058"/></svg>