<svg width="24" height="24" viewBox="0 0 24 24" fill="none" xmlns="http://www.w3.org/2000/svg">
<path fill-rule="evenodd" clip-rule="evenodd" d="M20.64 12.0128C20.64 11.3879 20.5827 10.787 20.4764 10.2102H12V13.619H16.8436C16.635 14.7206 16.0009 15.6539 15.0477 16.2788V18.49H17.9564C19.6582 16.9558 20.64 14.6966 20.64 12.0128Z" fill="#4285F4"/>
<path fill-rule="evenodd" clip-rule="evenodd" d="M11.9998 20.6249C14.4298 20.6249 16.467 19.8358 17.9561 18.4899L15.0475 16.2788C14.2416 16.8075 13.2107 17.12 11.9998 17.12C9.65567 17.12 7.67158 15.5698 6.96385 13.4868H3.95703V15.7701C5.43794 18.6501 8.48158 20.6249 11.9998 20.6249Z" fill="#34A853"/>
<path fill-rule="evenodd" clip-rule="evenodd" d="M6.96409 13.487C6.78409 12.9582 6.68182 12.3934 6.68182 11.8126C6.68182 11.2318 6.78409 10.667 6.96409 10.1382V7.85498H3.95727C3.34773 9.04467 3 10.3906 3 11.8126C3 13.2346 3.34773 14.5805 3.95727 15.7702L6.96409 13.487Z" fill="#FBBC05"/>
<path fill-rule="evenodd" clip-rule="evenodd" d="M11.9998 6.50497C13.3211 6.50497 14.5075 6.9496 15.4402 7.82284L18.0216 5.29526C16.4629 3.87324 14.4257 3 11.9998 3C8.48158 3 5.43794 4.9748 3.95703 7.85489L6.96385 10.1381C7.67158 8.05517 9.65567 6.50497 11.9998 6.50497Z" fill="#EA4335"/>
</svg>
