<svg width="97" height="224" fill="none" xmlns="http://www.w3.org/2000/svg"><path fill-rule="evenodd" clip-rule="evenodd" d="M0 13.846l12.843 64.641 70.3-16.28L66.96 0 0 13.846z" fill="#00CBBC"/><path fill-rule="evenodd" clip-rule="evenodd" d="M11.548 78.73l20.716 20.534L72.202 88.68l9.786-26.352-70.44 16.402z" fill="#007E8A"/><path fill-rule="evenodd" clip-rule="evenodd" d="M53.996 140.816l-4.341-1.56 9.515-29.604 4.342 1.561-9.516 29.603z" fill="#FABE00"/><path fill-rule="evenodd" clip-rule="evenodd" d="M30.024 181.445l-9.805-.231-4.052 15.091 7.222 3.376 6.635-18.236z" fill="#F6AC95"/><path fill-rule="evenodd" clip-rule="evenodd" d="M55.429 107.834l-16.584-3.953-20.369 76.348 12.944 4.448 24.009-76.843z" fill="#007E8A"/><path fill-rule="evenodd" clip-rule="evenodd" d="M21.243 211.224a1.42 1.42 0 0 1-.467-.08l-10.555-3.721c-.758-.268-1.163-1.12-.905-1.905.258-.784 1.082-1.204 1.84-.937l9.182 3.238 6.406-19.467c.258-.784 1.082-1.203 1.838-.938l13.154 4.62 7.363-22.497c.124-.378.387-.689.733-.865a1.403 1.403 0 0 1 1.108-.074l9.28 3.271c.758.267 1.163 1.119.905 1.904-.258.784-1.082 1.204-1.84.937l-7.905-2.787-7.363 22.496a1.486 1.486 0 0 1-.731.864 1.406 1.406 0 0 1-1.108.075l-13.156-4.62-6.406 19.469a1.485 1.485 0 0 1-.733.863c-.2.102-.42.154-.64.154" fill="#8C9C9C"/><path fill-rule="evenodd" clip-rule="evenodd" d="M55.529 117.972c-1.139-.384-2.267-.307-3.386.23-1.08.558-1.816 1.392-2.208 2.506l-.03.03c-.392 1.132-.324 2.236.207 3.311.569 1.075 1.422 1.805 2.56 2.19l4.947 1.641c1.158.384 2.277.307 3.356-.23 1.119-.518 1.875-1.344 2.267-2.478l.03-.029c.392-1.113.304-2.227-.265-3.34-.53-1.076-1.374-1.806-2.532-2.189l-4.946-1.642z" fill="#FB5058"/><path fill-rule="evenodd" clip-rule="evenodd" d="M56.583 162.623l4.906 3.586 11.261-15.71-7.007-3.912-9.16 16.036z" fill="#F6AC95"/><path fill-rule="evenodd" clip-rule="evenodd" d="M76.304 154.666l-12.78-7.068 14.072-25.142-33.715-1.748.762-14.519 45.425 2.355a7.319 7.319 0 0 1 6.018 3.739 7.233 7.233 0 0 1-.009 7.055l-19.773 35.328z" fill="#007E8A"/><path fill-rule="evenodd" clip-rule="evenodd" d="M41.77 200.835l-4.474-1.507 14.45-42.132-11.316-3.806-15.192 42.361-4.452-1.568 16.748-46.701 7.514 2.507 3.912-11.482 4.477 1.499-3.913 11.488 8.214 2.783-15.969 46.558z" fill="#FABE00"/><path fill-rule="evenodd" clip-rule="evenodd" d="M22.892 232l-4.416-1.505 24.454-72.366 4.415 1.506L22.892 232z" fill="#8C9C9C"/><path fill-rule="evenodd" clip-rule="evenodd" d="M25.998 145.433c-1.575 0-2.857-1.282-2.87-2.874l-.038-4.847-6.982-1.558c-1.548-.346-2.525-1.892-2.183-3.454.343-1.562 1.876-2.55 3.423-2.203l9.214 2.057a2.89 2.89 0 0 1 2.25 2.805l.057 7.154c.012 1.6-1.262 2.907-2.847 2.92h-.024zM79.234 163.9c-.153 0-.307-.007-.462-.023-2.527-.261-4.37-2.581-4.117-5.183l3.825-39.395L63.84 81.516c-.942-2.43.207-5.184 2.565-6.153 2.36-.968 5.033.214 5.973 2.642l15.055 38.859c.274.706.379 1.47.305 2.226l-3.936 40.546c-.238 2.442-2.236 4.264-4.569 4.264" fill="#F6AC95"/><path fill-rule="evenodd" clip-rule="evenodd" d="M68.737 160.438c-.332 0-.67-.059-.998-.183-1.513-.568-2.292-2.292-1.74-3.851l2.156-6.099a2.944 2.944 0 0 1 2.057-1.891l7.024-1.743c1.567-.388 3.14.605 3.516 2.217.377 1.614-.587 3.236-2.152 3.624l-5.504 1.366-1.62 4.584c-.432 1.219-1.55 1.976-2.74 1.976" fill="#F6AC95"/><path fill-rule="evenodd" clip-rule="evenodd" d="M72.925 168.517a2.349 2.349 0 0 1-2.338-2.595l1.902-18.038-43.04-14.606-11.275 17.376a2.347 2.347 0 1 1-3.938-2.558l12.268-18.907a2.348 2.348 0 0 1 2.723-.946l46.548 15.796a2.347 2.347 0 0 1 1.58 2.47l-2.098 19.905a2.348 2.348 0 0 1-2.332 2.103" fill="#8C9C9C"/><path fill-rule="evenodd" clip-rule="evenodd" d="M20.446 148.895a4.494 4.494 0 0 1-2.027-.486l-4.694-2.37a4.708 4.708 0 0 1-2.37-2.846L.21 106.409a4.84 4.84 0 0 1 1.133-4.757L29.078 72.96a4.516 4.516 0 0 1 6.516-.017c1.805 1.847 1.812 4.85.017 6.707L9.835 106.314l9.729 32.108 2.915 1.472c2.285 1.153 3.229 3.995 2.108 6.346-.802 1.68-2.439 2.655-4.141 2.655" fill="#F6AC95"/><path fill-rule="evenodd" clip-rule="evenodd" d="M28.869 101.993l5.016 20.356 20.344-4.636 2.914-.534 13.532-3.276 4.385-22.718L54.556 112.8l-25.688-10.808z" fill="#8C9C9C"/><path fill-rule="evenodd" clip-rule="evenodd" d="M56.062 70.88l-20.814-.471c-10.572 1.827-13.522 8.212-8.851 19.157l2.48 12.85 24.994 10.699 19.95-21.397 2.393-12.438c-2.595-6.695-9.312-9.495-20.152-8.4" fill="#00CBBC"/><path fill-rule="evenodd" clip-rule="evenodd" d="M8.204 203.416c-.437.438-.879.87-1.262 1.364-.595.767-.943 1.7-1.094 2.676-.24 1.702.101 3.257 1.022 4.665 1.092 1.671 2.98 2.709 4.902 2.55.988-.081 1.944-.433 2.822-.924.844-.472 1.643-1.096 2.202-1.926.645-.956.779-2.162 1.129-3.253a33487.767 33487.767 0 0 1 2.657-8.28c.068-.211.135-.424.204-.635l-6.02-3.434c-.783.863-1.564 1.727-2.347 2.589l-3.572 3.94a20.52 20.52 0 0 1-.643.668" fill="#FB5058"/><path fill-rule="evenodd" clip-rule="evenodd" d="M25.229 104.835a2.83 2.83 0 0 0 1.165 1.923c.672.483 1.41.667 2.211.553a2.883 2.883 0 0 0 1.972-1.165 2.729 2.729 0 0 0 .568-2.155l-4.482-30.12-5.877 1.47 4.443 29.494z" fill="#007E8A"/><path fill-rule="evenodd" clip-rule="evenodd" d="M46.538 104.04l-4.96-1.01 2.014-4.121 4.26 1.01-1.314 4.121zm2.45 3.304l2.977-14.385-6.01-1.774-7.848 13.511 10.882 2.648z" fill="#fff"/><path fill-rule="evenodd" clip-rule="evenodd" d="M53.77 116.577l-4.115-23.703 2.812-.536 4.116 23.704-2.812.535z" fill="#fff"/><path fill-rule="evenodd" clip-rule="evenodd" d="M69.473 69.253l-5.961.665 4.516 30.346c.117.771.51 1.397 1.18 1.879.649.481 1.377.665 2.183.549a2.874 2.874 0 0 0 1.919-1.128c.492-.655.679-1.367.56-2.138l-4.397-30.173z" fill="#007E8A"/><path fill-rule="evenodd" clip-rule="evenodd" d="M66.976 62.329L26.56 66.875l13.409 19.692 24.067-4.428 2.94-19.81z" fill="#40235E"/><path fill-rule="evenodd" clip-rule="evenodd" d="M33.463 56.839c-1.81 2.225-2.545 4.758-2.203 7.599l7.434 21.008s1.62 5.156 3.893 6.944c2.253 1.788 4.818 2.513 7.695 2.175l5.275-.983c2.877-.318 4.715-1.59 6.526-3.815 1.79-2.244 1.515-4.788 1.193-7.629l-2.384-21.01c-.342-2.839-1.64-5.144-3.893-6.912-2.253-1.788-4.818-2.522-7.694-2.205l-8.812.983c-2.876.338-5.22 1.62-7.03 3.845" fill="#F6AC95"/><path fill-rule="evenodd" clip-rule="evenodd" d="M39.901 55.276c-2.817.33-5.11 1.578-6.884 3.746-1.773 2.167-2.05 4.676-1.715 7.444l5.523 15.484 24.377-8.435-1.186-10.354c-.335-2.767-1.748-4.971-3.954-6.694-2.205-1.742-4.717-2.458-7.534-2.148l-8.627.957z" fill="#020203"/><path fill-rule="evenodd" clip-rule="evenodd" d="M23.634 69.796a22.74 22.74 0 0 0 1.235 4.074l40.952-9.382a26.56 26.56 0 0 0-.53-4.21c-1.264-6.015-4.368-10.698-9.314-14.051-4.959-3.29-10.312-4.275-16.06-2.952-5.75 1.302-10.219 4.539-13.403 9.71-3.184 5.194-4.144 10.797-2.88 16.811" fill="#FB5058"/><path fill-rule="evenodd" clip-rule="evenodd" d="M66.976 63.482L28.87 71.934c6.208 2.16 12.937 2.55 20.022.981 7.086-1.55 13.06-4.758 18.085-9.433" fill="#fff"/><path fill-rule="evenodd" clip-rule="evenodd" d="M74.393 163.9c-2.184 0-4.206-1.294-4.88-3.308-.829-2.471.686-5.09 3.382-5.849l3.64-1.023c2.695-.759 5.553.629 6.382 3.1.828 2.471-.687 5.09-3.384 5.849l-3.639 1.024c-.5.141-1.005.207-1.501.207" fill="#F6AC95"/><path fill-rule="evenodd" clip-rule="evenodd" d="M57.785 183.343c1.037-.963 1.584-2.174 1.64-3.63l.623-14.398-4.95-3.724-5.423 17.36c-.113 1.456.25 2.741 1.154 3.869.886 1.149 2.008 1.764 3.365 1.846 1.338.082 2.536-.359 3.591-1.323" fill="#FB5058"/></svg>