<svg height="24" width="24" role="presentation" focusable="false" class="ccl-0f24ac4b87ce1f67 ccl-ed34b65f78f16205 ccl-c2d950af8a73befe" viewBox="0 0 24 24"><path d="m10.596 9 .3 1.275-1.764 1.765-.216-.832a5.699 5.699 0 0 0-2.52 1.392A5.737 5.737 0 0 0 4.812 15h1.36l-2.61 2.61a4.203 4.203 0 0 1-.046-.618H2.508c0-1.184.24-2.304.72-3.36a8.04 8.04 0 0 1 1.968-2.64H2.508L1.5 10.008v-6L2.508 3h6l1.008 1.008V9h1.08zM9.489 17.34a1.961 1.961 0 0 1-.573 1.092 1.895 1.895 0 0 1-1.07.55l-1.763 1.764C6.528 20.916 7 21 7.5 21c.736 0 1.408-.176 2.016-.528a4.073 4.073 0 0 0 1.44-1.464 3.9 3.9 0 0 0 .552-2.016h4.008v.504c0 .64.152 1.232.456 1.776.32.528.744.952 1.272 1.272a3.534 3.534 0 0 0 1.752.456 3.448 3.448 0 0 0 3.024-1.728c.32-.544.48-1.128.48-1.752 0-.624-.144-1.192-.432-1.704a3.27 3.27 0 0 0-1.152-1.272 3.336 3.336 0 0 0-1.608-.552l-.84-3.048c.128.032.264.048.408.048h1.632v-3h-1.671l-2.519 2.518.998 3.89c-.32.192-.552.392-.696.6h-4.608l-.035-.148-2.488 2.488zm8.019.156c0-.416.144-.768.432-1.056a1.49 1.49 0 0 1 1.056-.432c.416 0 .768.144 1.056.432.304.288.456.64.456 1.056 0 .416-.152.776-.456 1.08-.288.288-.64.432-1.056.432-.4 0-.752-.144-1.056-.432a1.518 1.518 0 0 1-.432-1.08zM21.031 4.414 19.617 3 3.03 19.588l1.415 1.414L21.03 4.414z"></path></svg>