<svg height="24" width="24" viewBox="0 0 24 24" role="presentation" focusable="false" class="ccl-0f24ac4b87ce1f67 ccl-ed34b65f78f16205 ccl-c2d950af8a73befe"><path d="M19.3567 10.2969C18.8586 9.3098 18.0975 8.47955 17.1573 7.89778C16.2171 7.31601 15.1344 7.00534 14.0288 7.00006L14.0001 13L19.3567 10.2969Z"></path><path d="M17.9817 2H10V4H14C9.02944 4 5 8.02944 5 13C5 17.9706 9.02944 22 14 22C18.9706 22 23 17.9706 23 13C23 8.02944 18.9706 4 14 4H17.9817V2ZM21 13C21 16.866 17.866 20 14 20C10.134 20 7 16.866 7 13C7 9.13401 10.134 6 14 6C17.866 6 21 9.13401 21 13Z"></path><path d="M2 8H5.33782C4.97522 8.62683 4.6787 9.29667 4.4578 10H2V8Z"></path><path d="M1 12H4.04938C4.01672 12.3289 4 12.6625 4 13C4 13.3375 4.01672 13.6711 4.04938 14H1V12Z"></path><path d="M2 16H4.4578C4.6787 16.7033 4.97522 17.3732 5.33782 18H2V16Z"></path></svg>